<svg width="31" height="31" viewBox="0 0 31 31" fill="none" xmlns="http://www.w3.org/2000/svg">
<path d="M15.5 0C6.9375 0 0 6.9375 0 15.5C0 24.0625 6.9375 31 15.5 31C24.0625 31 31 24.0625 31 15.5C31 6.9375 24.0625 0 15.5 0ZM15.5 28C8.60625 28 3 22.3937 3 15.5C3 8.60625 8.60625 3 15.5 3C22.3937 3 28 8.60625 28 15.5C28 22.3937 22.3937 28 15.5 28ZM16 18.5C15.175 18.5 14.5 19.175 14.5 20C14.5 20.825 15.175 21.5 16 21.5C17.4875 21.5 18.8938 22.1562 19.85 23.3C20.3563 23.9125 21.3 24.0437 21.9625 23.4937C22.6 22.9625 22.6875 22.0188 22.1562 21.3813C20.625 19.55 18.3813 18.5 16 18.5ZM10.5 14.5C11.6062 14.5 12.5 13.6062 12.5 12.5C12.5 11.3938 11.6062 10.5 10.5 10.5C9.39375 10.5 8.5 11.3938 8.5 12.5C8.5 13.6062 9.39375 14.5 10.5 14.5ZM20.5 10.5C19.3937 10.5 18.5 11.3938 18.5 12.5C18.5 13.6062 19.3937 14.5 20.5 14.5C21.6063 14.5 22.5 13.6062 22.5 12.5C22.5 11.3938 21.6063 10.5 20.5 10.5ZM10.15 16.675C9.4375 17.6312 7.875 19.8375 7.875 20.9312C7.875 22.35 9.05 23.5 10.5 23.5C11.95 23.5 13.125 22.35 13.125 20.9312C13.125 19.8375 11.5625 17.6312 10.85 16.675C10.675 16.4437 10.325 16.4437 10.15 16.675Z" fill="#333333"/>
</svg>
