<svg width="33" height="33" viewBox="0 0 33 33" fill="none" xmlns="http://www.w3.org/2000/svg">
<path d="M22.7065 11.9796L24.838 10.7C24.9669 10.6226 25.0792 10.5207 25.1687 10.3999C25.2581 10.2791 25.3229 10.1419 25.3593 9.99612C25.3958 9.85032 25.4031 9.69876 25.381 9.55012C25.3588 9.40147 25.3076 9.25864 25.2303 9.12978C25.1529 9.00092 25.051 8.88856 24.9302 8.79911C24.8094 8.70966 24.6722 8.64488 24.5264 8.60845C24.3806 8.57202 24.229 8.56467 24.0804 8.58682C23.9318 8.60897 23.7889 8.66017 23.6601 8.73752L23.66 8.73753L18.8204 11.6437C18.8203 11.6437 18.8202 11.6437 18.8202 11.6438L18.8202 11.6438L22.7065 11.9796ZM22.7065 11.9796C22.9056 12.1477 23.0725 12.3517 23.1981 12.5818C23.3675 12.8922 23.4562 13.2401 23.4562 13.5938C23.4562 14.154 23.2337 14.6913 22.8375 15.0875C22.4413 15.4837 21.904 15.7062 21.3438 15.7062C20.7835 15.7062 20.2462 15.4837 19.85 15.0875C19.4922 14.7298 19.276 14.2569 19.2375 13.756L22.7065 11.9796ZM10.2951 11.9776C10.0862 12.1536 9.91268 12.3691 9.78507 12.6126C9.61492 12.9373 9.5322 13.3007 9.54505 13.6671C9.55789 14.0335 9.66586 14.3902 9.85833 14.7022C10.0508 15.0142 10.3212 15.2708 10.6428 15.4466C10.9645 15.6225 11.3264 15.7116 11.6929 15.7053C12.0595 15.6989 12.418 15.5973 12.7334 15.4104C13.0488 15.2234 13.31 14.9577 13.4916 14.6392C13.6457 14.3688 13.7378 14.0683 13.7622 13.7593C13.9527 13.7323 14.1344 13.6574 14.2895 13.5404C14.4903 13.3892 14.6356 13.176 14.7031 12.9338C14.7705 12.6917 14.7563 12.434 14.6626 12.2008C14.569 11.9676 14.4013 11.7718 14.1853 11.6436C14.1851 11.6435 14.185 11.6434 14.1849 11.6433L9.33792 8.73747L9.33798 8.73737L9.33236 8.73427C9.07304 8.59145 8.76844 8.55474 8.48261 8.63187C8.19678 8.70899 7.952 8.89395 7.79972 9.14784C7.64745 9.40172 7.59955 9.70477 7.66611 9.99324C7.73266 10.2817 7.90848 10.5331 8.15659 10.6947L8.15652 10.6948L8.16204 10.6981L10.2951 11.9776ZM23.9321 22.4386C23.965 22.1425 23.8811 21.8455 23.6985 21.6105L23.6962 21.6071L23.6923 21.6013L23.6871 21.5935L23.6811 21.5863L23.6714 21.5746L23.6715 21.5746L23.6682 21.5709L23.6553 21.5562L23.58 21.4619L23.5748 21.466C23.4544 21.3337 23.3279 21.2071 23.1957 21.0866L23.1954 21.0863C22.8952 20.8139 22.4556 20.4636 21.8628 20.1158C20.6759 19.4155 18.9036 18.7469 16.5039 18.7469C14.1021 18.7469 12.328 19.4175 11.1413 20.1157L11.1412 20.1157C10.5508 20.4632 10.1094 20.8133 9.80701 21.0878C9.65545 21.2234 9.53941 21.3414 9.45886 21.428L9.4574 21.4296L9.36246 21.5342L9.36209 21.5339L9.35392 21.5444L9.34008 21.5622L9.33541 21.5645L9.31157 21.5939C9.21695 21.7106 9.14624 21.8448 9.10348 21.9888C9.06072 22.1329 9.04675 22.2839 9.06236 22.4333C9.07797 22.5827 9.12286 22.7276 9.19447 22.8597C9.26607 22.9918 9.36299 23.1085 9.47969 23.2031C9.59639 23.2977 9.73058 23.3684 9.87461 23.4112C10.0186 23.4539 10.1697 23.4679 10.3191 23.4523C10.4685 23.4367 10.6134 23.3918 10.7455 23.3202C10.8746 23.2502 10.9891 23.1559 11.0826 23.0427L11.0827 23.0428L11.0882 23.0367C11.1688 22.9482 11.2538 22.8637 11.343 22.7838L11.343 22.7837C11.637 22.5199 11.9571 22.2867 12.2985 22.0878L12.299 22.0875C13.1719 21.5747 14.5501 21.0344 16.5039 21.0344C18.4575 21.0344 19.8339 21.5766 20.7031 22.0857L20.7034 22.0858C21.044 22.2846 21.3634 22.5177 21.6565 22.7814C21.745 22.8615 21.8295 22.9459 21.9095 23.0344L21.9094 23.0346L21.9153 23.0405C22.1054 23.2703 22.3779 23.4168 22.6747 23.4486C22.9746 23.4808 23.275 23.3931 23.5106 23.2048L23.5108 23.2047C23.7472 23.0152 23.8987 22.7397 23.9321 22.4386ZM16.5 0.825C12.3427 0.825 8.35573 2.47647 5.4161 5.4161C2.47647 8.35573 0.825 12.3427 0.825 16.5C0.825 20.6573 2.47647 24.6443 5.4161 27.5839C8.35573 30.5235 12.3427 32.175 16.5 32.175C20.6573 32.175 24.6443 30.5235 27.5839 27.5839C30.5235 24.6443 32.175 20.6573 32.175 16.5C32.175 12.3427 30.5235 8.35573 27.5839 5.4161C24.6443 2.47647 20.6573 0.825 16.5 0.825ZM3.1125 16.5C3.1125 14.7419 3.45878 13.0011 4.13156 11.3768C4.80435 9.75258 5.79046 8.27675 7.03361 7.03361C8.27675 5.79046 9.75258 4.80435 11.3768 4.13156C13.0011 3.45878 14.7419 3.1125 16.5 3.1125C18.2581 3.1125 19.9989 3.45878 21.6232 4.13156C23.2474 4.80435 24.7232 5.79046 25.9664 7.03361C27.2095 8.27675 28.1957 9.75258 28.8684 11.3768C29.5412 13.0011 29.8875 14.7419 29.8875 16.5C29.8875 20.0506 28.477 23.4557 25.9664 25.9664C23.4557 28.477 20.0506 29.8875 16.5 29.8875C12.9494 29.8875 9.54425 28.477 7.03361 25.9664C4.52296 23.4557 3.1125 20.0506 3.1125 16.5Z" fill="#333333" stroke="#333333" stroke-width="0.35"/>
</svg>
